<?xml version="1.0" standalone="no"?>
<!DOCTYPE svg PUBLIC "-//W3C//DTD SVG 20010904//EN"
 "http://www.w3.org/TR/2001/REC-SVG-20010904/DTD/svg10.dtd">
<svg version="1.0" xmlns="http://www.w3.org/2000/svg"
 width="512.000000pt" height="512.000000pt" viewBox="0 0 512.000000 512.000000"
 preserveAspectRatio="xMidYMid meet">
<metadata>
Created by potrace 1.14, written by Peter Selinger 2001-2017
</metadata>
<g transform="translate(0.000000,512.000000) scale(0.100000,-0.100000)"
fill="#000000" stroke="none">
<path d="M3050 4778 c-11 -12 -21 -27 -22 -32 -6 -47 -3 -295 5 -312 20 -45
75 -54 122 -20 18 13 20 28 22 153 4 177 0 199 -37 218 -40 21 -66 19 -90 -7z"/>
<path d="M2117 4520 c-21 -25 -24 -35 -17 -60 14 -50 140 -260 164 -272 51
-28 123 18 112 72 -7 35 -131 250 -158 273 -32 27 -72 22 -101 -13z"/>
<path d="M3982 4533 c-19 -16 -38 -46 -120 -193 -13 -25 -28 -49 -32 -55 -14
-19 1 -70 26 -91 26 -21 65 -22 91 -2 15 12 129 206 149 253 13 31 13 39 0 64
-22 42 -78 54 -114 24z"/>
<path d="M1322 4240 c-176 -40 -311 -117 -442 -250 -89 -90 -149 -180 -192
-290 -25 -62 -55 -183 -60 -244 -3 -26 -7 -29 -43 -33 -145 -14 -293 -119
-360 -258 -41 -84 -49 -117 -48 -215 0 -81 20 -158 59 -226 33 -58 97 -127
139 -149 19 -11 35 -22 35 -25 0 -3 -29 -20 -65 -39 -107 -57 -215 -170 -273
-286 -53 -106 -66 -167 -66 -305 1 -110 4 -134 28 -203 72 -204 219 -355 411
-425 81 -29 148 -39 268 -41 56 -1 103 -4 105 -6 2 -1 -1 -20 -7 -41 -13 -49
-19 -83 -20 -110 -1 -18 -9 -23 -47 -29 -349 -52 -435 -520 -128 -700 90 -53
15 -51 1896 -50 l1753 1 65 23 c186 65 316 211 356 403 35 165 -19 347 -139
469 l-35 36 96 5 c229 12 413 150 487 363 24 68 29 224 10 295 -55 208 -234
368 -444 396 l-47 6 -13 86 c-32 205 -124 389 -273 548 -45 47 -49 56 -63 135
-59 343 -281 651 -595 827 -115 64 -283 119 -425 137 -51 7 -227 7 -280 1
-230 -27 -442 -117 -625 -265 -29 -24 -40 -26 -40 -8 0 24 -91 151 -158 220
-112 115 -250 196 -407 238 -113 30 -300 34 -413 9z"/>
<path d="M4556 3799 c-66 -39 -125 -78 -132 -87 -33 -43 5 -122 58 -122 12 0
82 34 154 76 146 83 163 103 139 161 -27 63 -72 58 -219 -28z"/>
<path d="M4648 2919 c-31 -30 -34 -49 -16 -82 22 -43 36 -46 194 -47 138 0
154 2 178 21 33 26 36 79 6 109 -25 25 -7 22 -185 24 l-150 2 -27 -27z"/>
</g>
</svg>
